<svg width="240" height="52" viewBox="0 0 240 52" fill="none" xmlns="http://www.w3.org/2000/svg">
<path d="M48.2238 20.0593H18.9056L7.0874 37.9002H40.2692C43.2238 38.2411 50.0419 35.5139 51.5192 30.4002C53.2238 25.8548 56.5192 20.6275 48.2238 20.0593ZM38.3374 25.5139C38.3374 25.5139 33.9056 31.423 32.9965 32.9002C32.3147 34.0366 31.7465 33.923 31.4056 33.923H24.4738L31.0647 24.0366C31.0647 24.0366 36.0647 23.923 37.6556 24.0366C39.1329 24.0366 38.3374 25.5139 38.3374 25.5139Z" fill="#DF0100"/>
<path d="M46.6328 37.9002C45.9509 37.9002 45.8373 37.673 46.5191 37.332L79.7009 20.6275C80.3827 20.2866 81.4055 20.0593 82.2009 20.0593H85.1555C85.8373 20.0593 86.86 20.5139 87.3146 21.0821L107.542 46.7639C107.996 47.332 107.769 47.7866 107.087 47.7866H91.2918C90.61 47.7866 89.5873 47.332 89.1327 46.7639L74.2464 28.4684C73.7918 27.9002 72.8827 27.673 72.2009 28.0139L61.4055 33.3548C60.7237 33.6957 60.8373 33.923 61.5191 33.923L73.9055 34.0366C74.5873 34.0366 74.9282 34.4911 74.4737 35.173L73.2237 36.8775C72.7691 37.4457 71.86 37.9002 71.1782 37.9002H46.6328Z" fill="#DF0100"/>
<path d="M90.9508 20.0593C90.269 20.0593 90.0417 20.5139 90.4962 21.0821L103.11 36.9911C103.564 37.5593 104.474 38.0139 105.269 38.0139H106.974C107.655 38.0139 108.792 37.7866 109.474 37.4457L144.36 20.6275C145.042 20.2866 144.928 20.0593 144.246 20.0593H140.496C139.814 20.0593 138.678 20.2866 137.996 20.6275L118.11 29.9457C117.428 30.2866 116.519 30.0593 116.064 29.4911L109.133 21.0821C108.678 20.5139 107.655 20.0593 106.974 20.0593H90.9508Z" fill="#DF0100"/>
<path d="M165.383 34.6037C166.065 34.6037 166.406 35.0582 165.951 35.7401L165.269 36.8764C164.928 37.4446 164.019 38.0128 163.224 38.0128H138.565C137.883 38.0128 137.542 37.5582 137.997 36.9901L149.019 21.1946C149.474 20.6264 150.383 20.1719 151.065 20.1719H174.36C175.042 20.1719 175.383 20.6264 175.042 21.3082L173.792 23.4673C173.451 24.0355 172.542 24.6037 171.86 24.6037H155.837C155.156 24.6037 154.247 25.0582 153.792 25.7401L148.906 33.581C148.565 34.1491 148.792 34.7173 149.474 34.7173L165.383 34.6037Z" fill="#DF0100"/>
<path d="M138.678 38.0142C138.678 38.0142 130.837 37.787 135.155 29.6052C139.473 21.537 147.883 20.1733 151.064 20.1733C154.246 20.1733 151.064 26.4233 151.064 26.4233L138.678 38.0142Z" fill="#DF0100"/>
<path d="M168.451 26.9907C169.133 26.9907 169.474 27.4453 169.019 28.1271L167.883 29.9453C167.542 30.5134 166.633 31.0816 165.837 31.0816H151.519C150.837 31.0816 150.496 30.6271 150.837 29.9453L151.974 28.1271C152.315 27.5589 153.224 26.9907 154.019 26.9907H168.451Z" fill="#DF0100"/>
<path d="M175.383 25.7408L177.428 23.2408C177.428 23.2408 174.815 23.1272 175.837 21.309L179.36 16.6499H186.746C186.746 16.6499 188.337 16.9908 187.201 18.4681C186.065 20.059 183.11 23.0135 183.11 23.0135L179.474 25.6272H175.383V25.7408Z" fill="#DF0100"/>
<path d="M217.769 20.0598L216.064 23.2416C215.723 23.9234 214.814 24.3779 214.132 24.3779H202.769C202.087 24.3779 201.973 24.6052 202.655 24.8325C202.655 24.8325 214.019 29.4916 211.519 34.3779C209.701 37.9007 208.223 37.9007 175.723 37.9007L177.542 35.0597C177.882 34.4916 178.792 33.9234 179.587 33.9234H190.155C190.837 33.9234 190.951 33.6961 190.269 33.3552C190.269 33.3552 179.814 28.6961 184.019 23.4688C187.655 19.037 186.292 20.0598 217.769 20.0598Z" fill="#DF0100"/>
<path d="M59.9283 26.5359C59.9283 26.5359 69.1328 25.5131 69.701 21.9904C70.3828 18.4677 67.3146 15.9677 62.8828 15.3995C59.2465 14.945 57.0874 15.6268 52.8828 16.9904C52.8828 16.9904 62.5419 17.1041 65.3828 19.3768C67.8828 21.4222 66.6328 23.3541 59.9283 26.5359Z" fill="white"/>
<path d="M66.1782 6.87817H89.0191C89.701 6.87817 90.8373 7.10545 91.5191 7.44636L100.042 11.1964C100.724 11.5373 101.86 11.7645 102.542 11.8782L130.837 16.5373C131.519 16.6509 131.974 17.3327 131.746 18.0145L131.178 20.1736" stroke="white" stroke-width="0.818892" stroke-miterlimit="10" stroke-linecap="round"/>
<path d="M40.1555 11.6509H57.5419C58.2237 11.6509 59.3601 11.4236 60.0419 11.0827C60.0419 11.0827 63.451 9.60545 66.1783 6.87817" stroke="white" stroke-width="0.818892" stroke-miterlimit="10" stroke-linecap="round"/>
<path d="M72.5417 9.71875L75.9508 13.0142L96.1781 12.1051" stroke="white" stroke-width="0.818892" stroke-miterlimit="10" stroke-linecap="round" stroke-linejoin="bevel"/>
<path d="M110.042 18.0141C110.042 18.0141 119.246 17.6732 121.405 20.4004C122.542 21.7641 122.996 24.8323 117.201 26.0823C117.201 26.0823 120.155 26.7641 123.337 25.1732C126.519 23.5823 125.837 19.7186 121.974 18.0141C118.11 16.1959 114.019 15.9686 110.042 18.0141Z" fill="white"/>
<path d="M116.558 45.3687L115.96 44.569H112.587L111.989 45.3687H110.383L113.686 41.0086H114.882L118.171 45.3687H116.558ZM113.463 43.3868H115.083L114.277 42.302L113.463 43.3868ZM120.011 45.3687C119.01 45.3687 118.377 44.8332 118.377 43.957V41.0086H119.733V43.7345C119.733 44.0266 119.914 44.1865 120.233 44.1865H123.133C123.502 44.1865 123.648 44.0683 123.648 43.7345L123.641 41.0086H124.983V43.957C124.983 44.8471 124.371 45.3687 123.349 45.3687H120.011ZM128.274 45.3687V42.1838H125.68V41.0086H132.21V42.1838H129.644V45.3687H128.274ZM134.331 45.3687C133.33 45.3687 132.697 44.8332 132.697 43.957V42.448C132.697 41.544 133.309 41.0086 134.324 41.0086H137.683C138.684 41.0086 139.303 41.544 139.303 42.448V43.957C139.303 44.8471 138.684 45.3687 137.669 45.3687H134.331ZM134.554 44.1865H137.446C137.815 44.1865 137.954 44.0683 137.954 43.7345V42.6497C137.954 42.3229 137.801 42.1838 137.405 42.1838H134.602C134.22 42.1838 134.053 42.3298 134.053 42.6497V43.7345C134.053 44.0266 134.234 44.1865 134.554 44.1865ZM145.305 45.3687C144.304 45.3687 143.671 44.8332 143.671 43.957V42.448C143.671 41.544 144.283 41.0086 145.298 41.0086H149.603V42.1838H145.576C145.194 42.1838 145.027 42.3298 145.027 42.6497V43.7345C145.027 44.0266 145.208 44.1865 145.528 44.1865H149.603V45.3687H145.305ZM150.301 45.3687V41.0086H156.58V42.1838H151.663V42.601H156.037V43.7762H151.663V44.1865H156.58V45.3687H150.301ZM162.678 41.0086H164.006V45.3687H162.886L158.603 42.6288V45.3687H157.275V41.0086H158.401L162.678 43.7484V41.0086ZM167.294 45.3687V42.1838H164.701V41.0086H171.23V42.1838H168.664V45.3687H167.294ZM171.923 45.3687V41.0086H178.202V42.1838H173.286V42.601H177.66V43.7762H173.286V44.1865H178.202V45.3687H171.923ZM185.691 45.3687H184.029L182.735 43.9083H180.26V45.3687H178.897V41.0086H184.112C184.933 41.0086 185.524 41.5927 185.524 42.3229V42.5315C185.524 43.213 185.121 43.7275 184.446 43.8666L185.691 45.3687ZM180.26 42.1838V42.7262H183.883C184.064 42.7262 184.168 42.6288 184.168 42.4828V42.4341C184.168 42.2951 184.043 42.1838 183.883 42.1838H180.26Z" fill="#FEE125"/>
<path d="M214.722 33.4272V33.0261H216.612V33.4272H215.908V35.3267H215.427V33.4272H214.722ZM216.923 33.0261H217.523L218.156 34.5718H218.183L218.817 33.0261H219.417V35.3267H218.945V33.8293H218.926L218.33 35.3154H218.009L217.414 33.8237H217.395V35.3267H216.923V33.0261Z" fill="#DF0100"/>
</svg>
